HIERARCHY
ROOT Hips
{
  OFFSET -1.85789 92.8449 61.1929
  CHANNELS 6 Xposition Yposition Zposition Zrotation Xrotation Yrotation
  JOINT Spine
  {
    OFFSET -0.000355721 21.3001 -0.016921
    CHANNELS 3 Zrotation Xrotation Yrotation
    JOINT LeftArm
    {
      OFFSET 13.5181 21.3012 0
      CHANNELS 3 Zrotation Xrotation Yrotation
      JOINT LeftForeArm
      {
        OFFSET 24.5783 0 0
        CHANNELS 3 Zrotation Xrotation Yrotation
        JOINT LeftHand
        {
          OFFSET 24.5783 0 0
          CHANNELS 3 Zrotation Xrotation Yrotation
          End Site
          {
            OFFSET 7.32568 1.52588e-05 0.0169305
          }
        }
      }
    }
    JOINT Head
    {
      OFFSET 0 27.4458 -0.00489235
      CHANNELS 3 Zrotation Xrotation Yrotation
      End Site
      {
        OFFSET 0 0 0
      }
    }
    JOINT RightArm
    {
      OFFSET -13.5174 21.3012 0
      CHANNELS 3 Zrotation Xrotation Yrotation
      JOINT RightForeArm
      {
        OFFSET -24.5783 0 0
        CHANNELS 3 Zrotation Xrotation Yrotation
        JOINT RightHand
        {
          OFFSET -24.5783 0 0
          CHANNELS 3 Zrotation Xrotation Yrotation
          End Site
          {
            OFFSET -7.32568 1.52588e-05 0.0169305
          }
        }
      }
    }
  }
  JOINT RightUpLeg
  {
    OFFSET -8.44614 -9.41038 0.835684
    CHANNELS 3 Zrotation Xrotation Yrotation
    JOINT RightLeg
    {
      OFFSET 0 -40.9639 0
      CHANNELS 3 Zrotation Xrotation Yrotation
      JOINT RightFoot
      {
        OFFSET 0 -40.9639 0
        CHANNELS 3 Zrotation Xrotation Yrotation
        End Site
        {
          OFFSET 0.50614 -9.67405 14.6709
        }
      }
    }
  }
  JOINT LeftUpLeg
  {
    OFFSET 8.44614 -9.41038 0.835684
    CHANNELS 3 Zrotation Xrotation Yrotation
    JOINT LeftLeg
    {
      OFFSET 0 -40.9639 0
      CHANNELS 3 Zrotation Xrotation Yrotation
      JOINT LeftFoot
      {
        OFFSET 0 -40.9639 0
        CHANNELS 3 Zrotation Xrotation Yrotation
        End Site
        {
          OFFSET -0.50614 -9.67405 14.6709
        }
      }
    }
  }
}
MOTION
Frames:	14
Frame Time:	0.0333333
2.78742 91.9628 30.6799 48.9847 -44.0467 -57.5692 -6.59674 2.11455 3.20867 -99.3496 -40.5298 38.8544 -2.4993e-05 -1.67536e-05 -0.0338988 -142.684 68.8935 146.502 -59.5317 -29.3719 41.6687 9.49107 31.8307 91.3612 -5.69516e-05 -1.1178e-06 94.8383 -10.1542 22.473 -23.5072 -71.2451 -50.0733 -55.8874 -12.878 37.8362 9.70818 -5.34563 -43.15 0.169915 63.8501 -22.8465 50.0943 9.59134 20.1488 -11.2334 -24.6142 0.464771 -1.36768 
3.71893 91.7014 30.7614 50.0562 -45.0254 -57.1295 -7.57026 2.62172 2.93385 -100.472 -40.0042 39.1032 -2.49856e-05 -1.67536e-05 -0.00849463 -108.25 67.4277 101.936 -57.6604 -26.1416 42.7096 9.90341 33.5291 87.912 -5.69717e-05 -8.47436e-07 93.6662 -6.67609 18.9733 -20.7928 -73.1129 -51.1583 -56.3737 -13.2873 37.7437 9.32307 -5.20002 -42.3777 0.11537 67.7534 -30.922 51.6321 13.5968 38.4272 -15.0321 -26.6109 5.54811 -8.98939 
4.0498 92.4469 32.0666 47.5728 -46.179 -59.7217 -8.44001 3.06983 2.41433 -95.5246 -38.806 38.5694 -2.50773e-05 -1.67534e-05 -0.322159 -84.4954 59.9677 71.8391 -53.5828 -21.7327 45.1972 11.7222 37.073 82.5355 -5.69863e-05 -5.75807e-07 92.4901 -5.65387 18.7241 -16.8562 -70.387 -50.04 -52.69 -13.0399 35.3887 9.67417 -4.20435 -40.8807 0.085083 68.2664 -37.3202 53.4631 14.7116 61.7999 -19.0325 -24.8829 10.2461 -7.04877 
3.81148 93.5774 34.4994 41.3256 -46.4248 -65.7186 -8.17916 3.23572 1.99238 -85.9844 -36.8508 37.1609 -2.51734e-05 -1.67525e-05 -0.650898 -67.3634 54.4435 54.5285 -48.0418 -16.3544 48.2322 15.1602 40.399 76.6585 -5.6994e-05 -3.57942e-07 91.5477 -5.62631 19.2439 -12.2942 -64.0222 -47.674 -46.8468 -13.328 32.5011 10.9292 -2.31599 -39.678 0.0424546 60.1558 -40.785 50.7704 9.98433 78.964 -17.0164 -25.776 8.81449 0.0153842 
3.38651 94.2654 36.8478 33.2046 -45.0832 -72.7249 -6.72451 3.17411 1.6176 -74.461 -34.0575 34.6553 -2.50838e-05 -1.67533e-05 -0.344469 -49.7554 49.6876 40.9807 -42.0022 -10.0214 50.5601 19.597 42.1531 71.0765 -5.69964e-05 -2.56761e-07 91.1101 -4.27076 17.7881 -8.89644 -56.3754 -44.9811 -40.7986 -14.2732 31.5955 11.3815 -0.498791 -39.865 -0.0431638 47.1742 -39.696 45.0445 -22.0787 82.9549 13.6934 -27.2393 12.4634 -5.88993 
2.56692 94.8079 38.7774 25.9131 -41.9628 -78.6741 -4.7477 2.90552 1.28726 -62.615 -31.194 31.1386 -2.49831e-05 -1.67536e-05 5.77421e-06 -37.5666 43.6504 31.8261 -36.1034 -4.44971 51.5957 23.7929 42.3804 67.1 -5.69959e-05 -2.81613e-07 91.2176 -1.84389 15.3901 -7.4179 -48.4715 -41.7233 -35.8781 -15.005 30.9756 12.1611 0.73842 -40.5394 -0.101748 34.0869 -34.7173 38.5847 -30.8226 74.0051 20.0558 -29.8482 10.3329 -11.6189 
2.03517 94.8357 40.8398 20.6133 -36.9318 -83.5054 -2.49383 2.46439 1.28047 -50.8606 -28.9182 27.9806 -2.53273e-05 -1.67501e-05 -1.17727 -32.7751 37.8135 25.564 -30.4293 -1.56121 52.3536 26.7823 41.8205 65.8412 -5.69906e-05 -4.66705e-07 92.0181 -0.260406 15.0325 -7.4656 -40.9995 -39.9977 -31.903 -14.9926 31.9456 12.2756 1.41198 -41.5392 -0.118663 24.6003 -28.7919 35.2746 -21.8891 60.905 9.2011 -31.3812 3.27234 -8.11661 
1.71631 94.3888 42.7771 16.8913 -31.0054 -87.1873 -0.131103 2.04072 1.51428 -40.1837 -27.0442 26.1816 -2.70987e-05 -1.66195e-05 -7.25459 -30.2787 32.5386 18.9952 -24.9605 -1.02179 53.8854 28.611 40.7646 66.7487 -5.69715e-05 -8.51337e-07 93.6831 -0.735578 18.0048 -8.33435 -34.4919 -39.1809 -28.1387 -12.9594 34.7457 10.4757 1.12229 -42.9851 -0.113716 18.5123 -23.1582 31.4266 -15.6054 44.7561 0.859978 -27.486 -7.84267 2.16817 
1.32437 93.6691 44.4155 13.8542 -25.4572 -89.5323 2.12147 1.77223 1.75468 -32.1617 -25.9585 24.811 -2.98077e-05 -1.60439e-05 -16.7367 -24.9042 27.6935 9.671 -19.9411 -0.953524 55.8724 29.8404 39.057 68.2489 -5.69239e-05 -1.40722e-06 96.0952 -3.22387 22.285 -9.12493 -28.5197 -38.0701 -24.6647 -11.7957 37.7191 9.10689 1.29261 -44.7192 -0.0301639 13.5734 -16.1489 26.5737 -10.7095 24.9082 2.84448 -21.0908 -8.8597 4.52704 
0.859927 92.6074 46.2197 11.3187 -20.4912 -90.75 4.03264 1.58513 1.93737 -27.0491 -26.6443 22.7155 -3.22453e-05 -1.50978e-05 -25.6879 -15.7474 24.3092 -4.46684 -15.7112 -0.395717 57.3705 30.9985 36.6501 69.3451 -5.68375e-05 -2.06157e-06 98.949 -6.78779 24.6375 -9.19379 -24.4013 -36.9855 -22.8004 -10.7579 41.5193 8.03186 1.71501 -46.9251 0.0988895 10.7631 -11.9402 23.0054 -5.49583 12.3939 7.81967 -18.6847 -9.35437 4.13503 
0.375878 91.7588 47.6552 9.48344 -16.006 -91.1204 5.30023 1.3575 2.03012 -23.8393 -28.7448 20.0289 -3.3992e-05 -1.41253e-05 -32.5289 -5.08829 21.6838 -21.7067 -12.2699 0.159426 57.845 32.64 33.6998 69.7817 -5.67157e-05 -2.72495e-06 101.865 -10.1045 24.0157 -8.69087 -20.3894 -35.6027 -20.554 -9.50581 43.933 5.93768 2.4506 -48.4641 0.293131 10.3969 -10.6667 21.2811 -2.25533 8.09902 9.37754 -16.2424 -7.75339 5.75609 
0.0465027 91.1906 48.8079 8.17908 -12.0756 -90.7205 5.92283 1.14301 1.96299 -21.6758 -30.618 17.5168 -3.5548e-05 -1.30026e-05 -39.0946 2.78102 18.1397 -34.5033 -9.43244 0.0755194 57.3016 35.0522 30.5404 69.5442 -5.6584e-05 -3.29013e-06 104.374 -12.4451 21.9104 -7.90918 -16.8929 -34.0391 -18.8519 -8.29173 45.0208 3.87217 3.22272 -49.2944 0.500336 11.1901 -10.3319 21.0232 -1.21743 8.16535 9.46908 -12.975 -10.027 6.7032 
-0.0760064 90.6082 50.0135 7.06579 -8.7244 -89.8614 6.21376 1.04505 1.73657 -20.0386 -31.3552 15.7018 -3.72126e-05 -1.14509e-05 -46.883 5.22939 14.2909 -37.459 -7.04736 -0.686241 56.1917 37.9849 27.5589 68.9205 -5.64763e-05 -3.68475e-06 106.143 -13.8897 19.9093 -6.80071 -14.719 -32.7176 -18.4368 -6.71433 46.1135 1.74494 3.81397 -49.9546 0.668756 13.0163 -11.7273 21.2718 -0.881562 12.9251 9.55626 -8.37683 -23.6208 13.5501 
-0.245857 90.398 51.1488 5.98825 -6.12381 -89.1569 6.13636 1.05804 1.44275 -18.5416 -31.3135 14.8971 -3.8685e-05 -9.64058e-06 -54.8701 4.35623 10.3832 -33.7412 -5.17259 -1.73154 55.2783 40.8126 25.1092 68.3575 -5.64047e-05 -3.92375e-06 107.221 -14.6385 18.3632 -5.55017 -13.0411 -30.9449 -18.0252 -5.24147 45.9368 0.182147 4.29703 -50.0125 0.75812 14.4691 -12.1192 21.2469 0.500388 15.3173 8.86412 -9.79586 -28.4912 15.8712 
